HIERARCHY
ROOT RootJoint
{
    OFFSET   0.000000   0.000000   0.000000
    CHANNELS 6 Xposition Yposition Zposition Xrotation Yrotation Zrotation
    JOINT pelvis_lowerback
    {
        OFFSET   0.000000   0.093605   0.000000
        CHANNELS 3 Xrotation Yrotation Zrotation
        JOINT lowerback_torso
        {
            OFFSET   0.000000   0.100000   0.000000
            CHANNELS 3 Xrotation Yrotation Zrotation
            JOINT torso_head
            {
                OFFSET   0.000000   0.282350   0.000000
                CHANNELS 3 Xrotation Yrotation Zrotation
                End Site
                {
                    OFFSET   0.000000   0.192650   0.000000
                }
            }
            JOINT rTorso_Clavicle
            {
                OFFSET  -0.001000   0.157500   0.000000
                CHANNELS 3 Xrotation Yrotation Zrotation
                JOINT rShoulder
                {
                    OFFSET  -0.117647   0.000000   0.000000
                    CHANNELS 3 Xrotation Yrotation Zrotation
                    JOINT rElbow
                    {
                        OFFSET  -0.245000   0.000000   0.000000
                        CHANNELS 3 Xrotation Yrotation Zrotation
                        JOINT rWrist
                        {
                            OFFSET  -0.240000   0.000000   0.000000
                            CHANNELS 3 Xrotation Yrotation Zrotation
                            End Site
                            {
                                OFFSET  -0.116353  -0.002500   0.000000
                            }
                        }
                    }
                }
            }
            JOINT lTorso_Clavicle
            {
                OFFSET   0.001000   0.157500   0.000000
                CHANNELS 3 Xrotation Yrotation Zrotation
                JOINT lShoulder
                {
                    OFFSET   0.117647   0.000000   0.000000
                    CHANNELS 3 Xrotation Yrotation Zrotation
                    JOINT lElbow
                    {
                        OFFSET   0.245000   0.000000   0.000000
                        CHANNELS 3 Xrotation Yrotation Zrotation
                        JOINT lWrist
                        {
                            OFFSET   0.240000   0.000000   0.000000
                            CHANNELS 3 Xrotation Yrotation Zrotation
                            End Site
                            {
                                OFFSET   0.116353  -0.002500   0.000000
                            }
                        }
                    }
                }
            }
        }
    }
    JOINT rHip
    {
        OFFSET  -0.100000  -0.051395   0.000000
        CHANNELS 3 Xrotation Yrotation Zrotation
        JOINT rKnee
        {
            OFFSET   0.000000  -0.410000   0.000000
            CHANNELS 3 Xrotation Yrotation Zrotation
            JOINT rAnkle
            {
                OFFSET   0.000000  -0.390000   0.000000
                CHANNELS 3 Xrotation Yrotation Zrotation
                JOINT rToeJoint
                {
                    OFFSET   0.000000  -0.050000   0.130000
                    CHANNELS 3 Xrotation Yrotation Zrotation
                    End Site
                    {
                        OFFSET  -0.010000   0.002000   0.060000
                    }
                }
            }
        }
    }
    JOINT lHip
    {
        OFFSET   0.100000  -0.051395   0.000000
        CHANNELS 3 Xrotation Yrotation Zrotation
        JOINT lKnee
        {
            OFFSET   0.000000  -0.410000   0.000000
            CHANNELS 3 Xrotation Yrotation Zrotation
            JOINT lAnkle
            {
                OFFSET   0.000000  -0.390000   0.000000
                CHANNELS 3 Xrotation Yrotation Zrotation
                JOINT lToeJoint
                {
                    OFFSET   0.000000  -0.050000   0.130000
                    CHANNELS 3 Xrotation Yrotation Zrotation
                    End Site
                    {
                        OFFSET   0.010000   0.002000   0.060000
                    }
                }
            }
        }
    }
}
MOTION
Frames: 8
Frame Time:   0.008333
 -2.331135   0.919128   3.976389   0.716442   0.209058  -0.967237   3.233190   0.417621   0.396538   0.191827   0.898895   0.821287  -3.704282   2.913569  -1.174764  -0.618474   0.019410   4.172024 -19.231685   2.469969  30.050428 -179.992503  56.772567 179.988931   9.414613   7.541679 -17.976047  -2.891656   3.656921   1.380793 -23.188629   7.731498 -31.161426 -179.997575 -62.722326 -179.998951   5.869570  -8.733035  16.314502  -4.587098  -3.241544  -1.780610   4.120038  -0.000004   0.000002   0.300184  -1.607932   1.954088  -0.598041   0.000004  -0.000002   5.587037  -6.237057   1.834405   0.886196  -0.000040   0.000110  -7.229726   1.506822   3.783214  -0.057597   0.000170  -0.000007
 -2.331338   0.919178   3.976096   0.747039   0.460770  -0.951958   3.336965   0.448030   0.358374   0.159963   0.919689   0.838751  -3.690300   2.999369  -1.159361  -0.641129   0.111090   4.128362 -19.207757   2.828008  30.065418 -179.992423  57.034345 179.989042   9.352710   7.598474 -17.833535  -2.892993   3.743042   1.468245 -23.156271   7.894515 -31.065619 -179.998002 -62.836917 -179.999489   5.810942  -8.761527  16.117738  -4.603680  -3.316530  -1.796653   4.128850  -0.000004   0.000015   0.272499  -1.785064   1.950594  -0.563455   0.000003  -0.000001   5.421634  -6.334297   1.852592   1.052276  -0.000064   0.000320  -7.254568   1.350982   3.695244  -0.039273   0.000143  -0.000006
 -2.331597   0.919220   3.975877   0.774263   0.736879  -0.938057   3.433243   0.501727   0.319043   0.126858   0.957846   0.851155  -3.673580   3.079516  -1.142745  -0.673373   0.205196   4.066676 -19.195791   3.171427  30.070340 -179.992392  57.280346 179.989223   9.285554   7.631033 -17.697964  -2.899161   3.836128   1.559159 -23.131829   8.054368 -30.967188 -179.998427 -62.946901 179.999977   5.754623  -8.786170  15.966083  -4.614415  -3.412711  -1.810522   4.148545  -0.000005   0.000043   0.247461  -1.982258   1.946898  -0.337169  -0.000006  -0.000036   5.265322  -6.443231   1.877386   1.213107  -0.000085   0.000498  -7.280784   1.183130   3.611456  -0.024774   0.000119  -0.000005
 -2.331911   0.919263   3.975722   0.802068   1.026509  -0.929802   3.519193   0.575109   0.281109   0.091395   1.014891   0.859791  -3.657540   3.154801  -1.126586  -0.708861   0.301329   3.999579 -19.189497   3.498002  30.071542 -179.992440  57.510356 179.989470   9.221382   7.662568 -17.568020  -2.905911   3.933518   1.648343 -23.110397   8.208681 -30.870346 -179.998824 -63.049649 179.999502   5.700809  -8.808083  15.842444  -4.618229  -3.511399  -1.815343   4.169168  -0.000006   0.000069   0.206079  -2.174119   1.947969  -0.337320  -0.000005  -0.000029   5.117610  -6.560173   1.912337   1.363468  -0.000103   0.000632  -7.306493   1.010740   3.533500  -0.012732   0.000098  -0.000004
 -2.332269   0.919302   3.975624   0.830380   1.320396  -0.924969   3.596094   0.665509   0.242204   0.054282   1.088580   0.864622  -3.642763   3.225608  -1.111272  -0.745464   0.399376   3.932129 -19.186718   3.808188  30.071890 -179.992569  57.725155 179.989779   9.159989   7.693471 -17.439715  -2.912394   4.033788   1.734105 -23.090802   8.357448 -30.776371 -179.999181 -63.145509 179.999102   5.649325  -8.827870  15.739251  -4.617975  -3.615491  -1.814227   4.189809  -0.000007   0.000090   0.162157  -2.365310   1.950396  -0.337445  -0.000004  -0.000023   4.978769  -6.680635   1.953647   1.503069  -0.000117   0.000722  -7.331753   0.838232   3.461012  -0.002594   0.000080  -0.000003
 -2.332662   0.919339   3.975574   0.858949   1.614209  -0.923069   3.665330   0.768929   0.202242   0.016498   1.175394   0.865970  -3.629289   3.292159  -1.096953  -0.782056   0.498500   3.866626 -19.186283   4.102350  30.072459 -179.992768  57.925752 179.990144   9.101234   7.723848 -17.311599  -2.918289   4.135518   1.815235 -23.072458   8.500612 -30.686112 -179.999491 -63.234976 179.998782   5.600064  -8.845891  15.652315  -4.614638  -3.722819  -1.807988   4.210390  -0.000009   0.000106   0.116523  -2.553579   1.954243  -0.337547  -0.000003  -0.000018   4.848426  -6.802493   1.999873   1.632764  -0.000128   0.000777  -7.356720   0.667664   3.393444   0.006080   0.000065  -0.000003
 -2.333082   0.919372   3.975564   0.887626   1.904959  -0.923670   3.728086   0.881768   0.161291  -0.021147   1.271953   0.864199  -3.617010   3.354664  -1.083635  -0.817981   0.597673   3.804022 -19.187483   4.380868  30.073617 -179.993024  58.113059 179.990558   9.044990   7.753668 -17.183558  -2.923498   4.237446   1.891259 -23.055064   8.638051 -30.600035 -179.999752 -63.318500 179.998542   5.552913  -8.862413  15.578695  -4.608947  -3.831658  -1.797392   4.230686  -0.000010   0.000117   0.069857  -2.737592   1.959233  -0.337631  -0.000002  -0.000015   4.726085  -6.924233   2.049799   1.753295  -0.000135   0.000804  -7.381419   0.500389   3.330373   0.013638   0.000053  -0.000002
 -2.333529   0.919427   3.975462   0.927469   2.416543  -0.919536   3.840428   0.945055   0.122291  -0.113895   1.313441   0.862839  -3.585455   3.422111  -1.090642  -0.875253   0.656076   3.719120 -19.301527   4.679984  30.033516 -179.993154  58.323504 179.990891   8.964770   7.783846 -17.025654  -2.979371   4.314046   1.950348 -23.156267   8.795439 -30.460527 179.999972 -63.364814 179.998389   5.475963  -8.880018  15.391954  -4.593317  -3.984555  -1.800298   4.265303  -0.000012   0.000203  -0.007091  -3.098266   1.947563  -0.337699  -0.000002  -0.000012   4.510833  -7.127346   2.112647   1.967264  -0.000179   0.001234  -7.409825   0.192432   3.194942   0.008226   0.000040  -0.000002
